<svg xmlns="http://www.w3.org/2000/svg" width="1600" height="1000" viewBox="0 0 1600 1000">
  <defs>
    <linearGradient id="bg" x1="0" y1="0" x2="1" y2="1">
      <stop offset="0" stop-color="#fff5f5"/>
      <stop offset=".58" stop-color="#ffffff"/>
      <stop offset="1" stop-color="#ffe4e6"/>
    </linearGradient>
    <filter id="blur"><feGaussianBlur stdDeviation="26"/></filter>
    <filter id="shadow" x="-20%" y="-20%" width="140%" height="140%">
      <feDropShadow dx="0" dy="34" stdDeviation="36" flood-color="#1f2c3b" flood-opacity=".15"/>
    </filter>
  </defs>
  <rect width="1600" height="1000" fill="url(#bg)"/>
  <circle cx="320" cy="210" r="220" fill="#e31d23" opacity=".16" filter="url(#blur)"/>
  <circle cx="1220" cy="260" r="250" fill="#1f2c3b" opacity=".13" filter="url(#blur)"/>
  <g filter="url(#shadow)">
    <rect x="185" y="150" width="1230" height="700" rx="60" fill="#ffffff" opacity=".78"/>
    <rect x="245" y="215" width="1110" height="570" rx="44" fill="#fffafa" stroke="#ffffff" stroke-width="4"/>
    <path d="M265 570 C440 480 590 625 770 540 C950 455 1108 560 1345 475 L1345 785 L265 785 Z" fill="#1f2c3b" opacity=".13"/>
    <path d="M265 465 C455 360 585 505 790 430 C994 355 1120 455 1345 360" fill="none" stroke="#e31d23" stroke-width="48" stroke-linecap="round" opacity=".18"/>
    <path d="M285 322 H720" stroke="#1f2c3b" stroke-width="66" stroke-linecap="round"/>
    <path d="M285 420 H900" stroke="#e31d23" stroke-width="34" stroke-linecap="round" opacity=".18"/>
    <rect x="1038" y="285" width="240" height="240" rx="58" fill="#e31d23" opacity=".92"/>
    <path d="M1092 414 C1142 342 1210 340 1248 410 C1198 456 1142 460 1092 414Z" fill="#ffffff" opacity=".92"/>
  </g>
  <text x="285" y="704" fill="#07090d" font-family="Arial Black, Impact, sans-serif" font-size="78" font-weight="900">Easy Fog</text>
  <text x="285" y="764" fill="#66717f" font-family="Arial, Helvetica, sans-serif" font-size="30" font-weight="700">Atmospheric depth for Blender scenes</text>
</svg>
