<svg xmlns="http://www.w3.org/2000/svg" width="1600" height="1000" viewBox="0 0 1600 1000">
  <defs>
    <linearGradient id="bg" x1="0" y1="0" x2="1" y2="1">
      <stop offset="0" stop-color="#fff5f5"/>
      <stop offset=".56" stop-color="#ffffff"/>
      <stop offset="1" stop-color="#ffe4e6"/>
    </linearGradient>
    <filter id="shadow" x="-20%" y="-20%" width="140%" height="140%">
      <feDropShadow dx="0" dy="34" stdDeviation="36" flood-color="#1f2c3b" flood-opacity=".15"/>
    </filter>
  </defs>
  <rect width="1600" height="1000" fill="url(#bg)"/>
  <circle cx="1320" cy="180" r="170" fill="#e31d23" opacity=".13"/>
  <circle cx="240" cy="790" r="210" fill="#1f2c3b" opacity=".08"/>
  <g filter="url(#shadow)">
    <rect x="180" y="145" width="1240" height="710" rx="60" fill="#ffffff" opacity=".82"/>
    <rect x="240" y="205" width="1120" height="590" rx="42" fill="#fffafa" stroke="#ffffff" stroke-width="4"/>
    <rect x="292" y="270" width="430" height="66" rx="22" fill="#1f2c3b"/>
    <rect x="292" y="385" width="300" height="82" rx="22" fill="#e31d23" opacity=".9"/>
    <rect x="630" y="385" width="300" height="82" rx="22" fill="#1f2c3b" opacity=".86"/>
    <rect x="968" y="385" width="300" height="82" rx="22" fill="#e31d23" opacity=".35"/>
    <rect x="292" y="515" width="976" height="34" rx="17" fill="#1f2c3b" opacity=".12"/>
    <rect x="292" y="584" width="760" height="34" rx="17" fill="#e31d23" opacity=".16"/>
    <rect x="292" y="652" width="620" height="34" rx="17" fill="#1f2c3b" opacity=".12"/>
  </g>
  <text x="292" y="735" fill="#07090d" font-family="Arial Black, Impact, sans-serif" font-size="76" font-weight="900">Quick Organizer</text>
  <text x="292" y="792" fill="#66717f" font-family="Arial, Helvetica, sans-serif" font-size="30" font-weight="700">Scene organization and workflow clarity</text>
</svg>
