<svg xmlns="http://www.w3.org/2000/svg" width="1600" height="1000" viewBox="0 0 1600 1000">
  <defs>
    <linearGradient id="bg" x1="0" y1="0" x2="1" y2="1">
      <stop offset="0" stop-color="#fff5f5"/>
      <stop offset="0.55" stop-color="#ffffff"/>
      <stop offset="1" stop-color="#ffe4e6"/>
    </linearGradient>
    <radialGradient id="r1" cx="30%" cy="20%" r="55%">
      <stop offset="0" stop-color="#e31d23" stop-opacity="0.32"/>
      <stop offset="1" stop-color="#e31d23" stop-opacity="0"/>
    </radialGradient>
    <radialGradient id="r2" cx="82%" cy="20%" r="45%">
      <stop offset="0" stop-color="#1f2c3b" stop-opacity="0.22"/>
      <stop offset="1" stop-color="#1f2c3b" stop-opacity="0"/>
    </radialGradient>
    <filter id="shadow" x="-20%" y="-20%" width="140%" height="140%">
      <feDropShadow dx="0" dy="34" stdDeviation="36" flood-color="#5e1c22" flood-opacity="0.18"/>
    </filter>
  </defs>
  <rect width="1600" height="1000" fill="url(#bg)"/>
  <rect width="1600" height="1000" fill="url(#r1)"/>
  <rect width="1600" height="1000" fill="url(#r2)"/>
  <circle cx="1320" cy="180" r="120" fill="#e31d23" opacity="0.14"/>
  <circle cx="260" cy="780" r="180" fill="#1f2c3b" opacity="0.08"/>
  <g filter="url(#shadow)">
    <rect x="190" y="150" width="1220" height="700" rx="58" fill="#ffffff" opacity="0.78"/>
    <rect x="230" y="195" width="1140" height="610" rx="42" fill="#fffafa" stroke="#ffffff" stroke-width="3"/>
    <rect x="280" y="260" width="420" height="72" rx="24" fill="#1f2c3b" opacity="0.92"/>
    <rect x="280" y="370" width="720" height="38" rx="19" fill="#e31d23" opacity="0.18"/>
    <rect x="280" y="430" width="590" height="38" rx="19" fill="#1f2c3b" opacity="0.12"/>
    <rect x="280" y="520" width="240" height="70" rx="35" fill="#e31d23"/>
    <rect x="1060" y="278" width="210" height="210" rx="48" fill="#e31d23" opacity="0.92"/>
    <path d="M1110 332 L1240 350 L1190 402 L1250 518 L1112 486 L1158 426 L1070 405 Z" fill="#11151c" opacity="0.92"/>
    <circle cx="1184" cy="330" r="24" fill="#1f2c3b"/>
  </g>
  <text x="280" y="692" fill="#11151c" font-family="Arial, Helvetica, sans-serif" font-size="72" font-weight="800" letter-spacing="-3">Auto Render Pro</text>
  <text x="280" y="752" fill="#5f6570" font-family="Arial, Helvetica, sans-serif" font-size="30" font-weight="600">Render automation for Blender</text>
</svg>