<svg xmlns="http://www.w3.org/2000/svg" width="1600" height="1000" viewBox="0 0 1600 1000">
  <defs>
    <linearGradient id="bg" x1="0" y1="0" x2="1" y2="1">
      <stop offset="0" stop-color="#fff5f5"/>
      <stop offset=".55" stop-color="#ffffff"/>
      <stop offset="1" stop-color="#ffe4e6"/>
    </linearGradient>
    <radialGradient id="red" cx="34%" cy="22%" r="58%">
      <stop offset="0" stop-color="#e31d23" stop-opacity=".34"/>
      <stop offset="1" stop-color="#e31d23" stop-opacity="0"/>
    </radialGradient>
    <filter id="shadow" x="-20%" y="-20%" width="140%" height="140%">
      <feDropShadow dx="0" dy="34" stdDeviation="36" flood-color="#1f2c3b" flood-opacity=".16"/>
    </filter>
  </defs>
  <rect width="1600" height="1000" fill="url(#bg)"/>
  <rect width="1600" height="1000" fill="url(#red)"/>
  <circle cx="1230" cy="260" r="190" fill="#1f2c3b" opacity=".10"/>
  <g filter="url(#shadow)">
    <rect x="180" y="145" width="1240" height="710" rx="60" fill="#ffffff" opacity=".82"/>
    <rect x="235" y="205" width="1130" height="590" rx="42" fill="#fffafa" stroke="#ffffff" stroke-width="4"/>
    <path d="M1060 250 C1230 320 1230 555 1058 628 C920 686 744 606 704 455 C670 328 822 195 1060 250Z" fill="#e31d23" opacity=".9"/>
    <circle cx="1012" cy="436" r="118" fill="#ffffff" opacity=".88"/>
    <path d="M1012 288 L1048 390 L1157 390 L1069 454 L1103 558 L1012 494 L921 558 L955 454 L867 390 L976 390 Z" fill="#1f2c3b"/>
    <rect x="285" y="280" width="430" height="66" rx="22" fill="#1f2c3b"/>
    <rect x="285" y="382" width="600" height="34" rx="17" fill="#e31d23" opacity=".18"/>
    <rect x="285" y="440" width="500" height="34" rx="17" fill="#1f2c3b" opacity=".12"/>
    <rect x="285" y="535" width="230" height="68" rx="34" fill="#e31d23"/>
  </g>
  <text x="285" y="706" fill="#07090d" font-family="Arial Black, Impact, sans-serif" font-size="76" font-weight="900">Light Master Pro</text>
  <text x="285" y="764" fill="#66717f" font-family="Arial, Helvetica, sans-serif" font-size="30" font-weight="700">Cinematic lighting control workflow</text>
</svg>
